# xmcd
#
# Track frame offsets: 
#        150
#        15834
#        31023
#        46842
#        65022
#        85165
#        106311
#        125246
#        209769
#        223818
#        243601
#        256921
#        277716
#        293387
#        307969
#        322423
#
# Disc length: 4533 seconds
#
# Revision: 1
# Processed by: cddbd v1.5.2PL0 Copyright (c) Steve Scherf et al.
# Submitted via: ExactAudioCopy v1.0b4
#
DISCID=e511b310
DTITLE=Various Artist - Blues For Little Walter
DYEAR=2016
DGENRE=Blues
TTITLE0=Kim Wilson - Someday
TTITLE1=Jimmy Rogers - She Loves Another Man
TTITLE2=Mark Wenner - Worried Life
TTITLE3=Steve Guyger - If It Ain't Me
TTITLE4=Mark Hummel - Hard Hearted Woman
TTITLE5=Kurt Crandall - Great Shakes
TTITLE6=Ronnie Owens - We're Gonna Move To Kansas City
TTITLE7=Sugar Ray Norcia - Sugar Ray Medley
TTITLE8=Andrew Ali - Evening Shuffle
TTITLE9=Mark Hummel - Easy
TTITLE10=Mark Wenner - Walking By Myself
TTITLE11=Steve Guyger - Little Boy Blue
TTITLE12=Ronnie Owens - Need My Baby
TTITLE13=Andrew Alli - Easy II
TTITLE14=Robert Lockwood - Rambling On My Mind
TTITLE15=Li'l Ronnie - Think Big
EXTD=
EXTT0=
EXTT1=
EXTT2=
EXTT3=
EXTT4=
EXTT5=
EXTT6=
EXTT7=
EXTT8=
EXTT9=
EXTT10=
EXTT11=
EXTT12=
EXTT13=
EXTT14=
EXTT15=
PLAYORDER=
